<svg version="1.1" id="Layer_1" xmlns="http://www.w3.org/2000/svg" xmlns:xlink="http://www.w3.org/1999/xlink" x="0px" y="0px"
	 width="100%" viewBox="0 0 192 192" enable-background="new 0 0 192 192" xml:space="preserve">
<path fill="#FEFEFE" opacity="0.000000" stroke="none" 
	d="
M193.000000,70.000000 
	C193.000000,111.306740 193.000000,152.113480 193.000000,192.960114 
	C129.068298,192.960114 65.136566,192.960114 1.102417,192.960114 
	C1.102417,129.110107 1.102417,65.219994 1.102417,1.164942 
	C64.999649,1.164942 128.999786,1.164942 193.000000,1.164942 
	C193.000000,23.863161 193.000000,46.681580 193.000000,70.000000 
M106.214531,16.631804 
	C100.125648,16.662523 94.036766,16.693243 87.218842,16.524384 
	C85.104942,16.955126 82.975159,17.320166 80.879532,17.826523 
	C52.198372,24.756636 28.535233,49.959686 27.305870,84.332001 
	C27.264143,85.498688 28.385111,86.706955 28.964130,87.895844 
	C29.883541,86.943665 31.053205,86.127914 31.664005,85.007492 
	C32.591797,83.305595 32.613541,80.559479 33.939503,79.734413 
	C37.136665,77.745003 40.876328,75.399391 44.379585,75.427086 
	C49.240959,75.465515 52.829998,78.791893 54.048149,84.059242 
	C54.371902,85.459175 55.667343,86.634392 56.516651,87.912788 
	C57.322010,86.970734 58.521763,86.154282 58.868305,85.066109 
	C61.013180,78.331078 64.360603,75.233215 70.064079,75.043816 
	C75.462807,74.864532 79.192261,78.139297 81.539322,84.885765 
	C81.919121,85.977470 82.932030,86.848915 83.652290,87.822174 
	C84.436966,86.932724 85.587318,86.170105 85.946945,85.133232 
	C88.273018,78.426628 92.039886,74.975197 97.262581,75.050369 
	C103.202560,75.135864 106.523247,78.128143 108.947105,85.376549 
	C109.258003,86.306274 110.155800,87.039749 110.781723,87.864128 
	C111.596886,87.023674 112.827171,86.321480 113.160545,85.320557 
	C115.514923,78.251831 119.124985,74.893089 124.646919,74.949165 
	C130.322479,75.006821 133.817566,78.196960 135.966797,85.011971 
	C136.302078,86.075119 137.358337,86.910904 138.081207,87.851822 
	C138.840164,86.942787 139.960312,86.150909 140.299316,85.105682 
	C142.464859,78.428741 146.157089,75.079880 151.651596,75.091255 
	C157.313461,75.102974 161.046234,78.420868 163.130310,84.910835 
	C163.503326,86.072479 164.855301,86.919762 165.755264,87.912193 
	C166.332870,86.719933 167.472610,85.492027 167.399628,84.341019 
	C166.786362,74.669792 165.330368,65.175659 160.946396,56.339817 
	C150.713409,35.715405 134.721542,22.403824 111.386162,17.226511 
	C110.923935,17.213949 110.461708,17.201389 109.263756,17.001812 
	C108.507156,16.978615 107.750565,16.955418 106.214531,16.631804 
M94.204407,95.372383 
	C82.553375,95.447990 70.902344,95.523582 59.251316,95.599205 
	C52.550556,95.642693 51.342686,96.719337 51.375877,103.402046 
	C51.463531,121.048607 51.605606,138.695419 51.848034,156.340439 
	C51.946735,163.524673 52.437481,163.870819 59.676941,163.883575 
	C68.559486,163.899200 77.442078,163.887299 86.594048,163.887299 
	C82.834549,172.413101 82.833076,172.395401 74.083397,173.124252 
	C70.009140,173.463654 66.862228,175.039185 66.934662,179.730392 
	C67.004646,184.263550 70.138786,185.633636 74.025787,185.646866 
	C89.676170,185.700165 105.326859,185.667801 120.977425,185.655426 
	C121.639183,185.654907 122.311050,185.591293 122.960831,185.466583 
	C126.187813,184.847244 128.494415,182.805908 127.679184,179.638168 
	C127.084976,177.329254 125.019463,175.077103 123.027382,173.569183 
	C121.810669,172.648193 119.492104,173.160477 117.666374,173.070572 
	C112.023964,172.792709 109.513885,170.234344 108.925362,163.885330 
	C117.927162,163.885330 126.906204,163.911057 135.885025,163.876480 
	C142.109756,163.852509 143.012878,162.929382 143.019928,156.569931 
	C143.039886,138.588455 143.037872,120.606911 143.018295,102.625427 
	C143.011139,96.064415 142.565445,95.628937 135.815247,95.606133 
	C123.661293,95.565071 111.507195,95.569008 99.227547,94.697311 
	C99.202637,90.400314 99.325706,86.094299 99.064751,81.811684 
	C98.984001,80.486282 97.858887,79.224525 97.211929,77.933624 
	C96.454002,79.298950 95.119095,80.633713 95.044861,82.035248 
	C94.809349,86.481995 95.044258,90.953644 94.204407,95.372383 
z"/>
<path fill="#85777C" opacity="1.000000" stroke="none" 
	d="
M99.353149,95.554146 
	C111.507195,95.569008 123.661293,95.565071 135.815247,95.606133 
	C142.565445,95.628937 143.011139,96.064415 143.018295,102.625427 
	C143.037872,120.606911 143.039886,138.588455 143.019928,156.569931 
	C143.012878,162.929382 142.109756,163.852509 135.885025,163.876480 
	C126.906204,163.911057 117.927162,163.885330 108.925362,163.885330 
	C109.513885,170.234344 112.023964,172.792709 117.666374,173.070572 
	C119.492104,173.160477 121.810669,172.648193 123.027382,173.569183 
	C125.019463,175.077103 127.084976,177.329254 127.679184,179.638168 
	C128.494415,182.805908 126.187813,184.847244 122.960831,185.466583 
	C122.311050,185.591293 121.639183,185.654907 120.977425,185.655426 
	C105.326859,185.667801 89.676170,185.700165 74.025787,185.646866 
	C70.138786,185.633636 67.004646,184.263550 66.934662,179.730392 
	C66.862228,175.039185 70.009140,173.463654 74.083397,173.124252 
	C82.833076,172.395401 82.834549,172.413101 86.594048,163.887299 
	C77.442078,163.887299 68.559486,163.899200 59.676941,163.883575 
	C52.437481,163.870819 51.946735,163.524673 51.848034,156.340439 
	C51.605606,138.695419 51.463531,121.048607 51.375877,103.402046 
	C51.342686,96.719337 52.550556,95.642693 59.251316,95.599205 
	C70.902344,95.523582 82.553375,95.447990 94.944321,95.600807 
	C96.907211,95.737541 98.130180,95.645844 99.353149,95.554146 
M133.343323,159.842743 
	C135.107681,159.842743 136.872040,159.842743 138.967300,159.842743 
	C138.967300,140.170990 138.968430,121.200790 138.966324,102.230591 
	C138.965912,98.492989 136.178696,99.177681 133.956100,99.175278 
	C109.631668,99.148987 85.306335,99.262451 60.983547,99.060852 
	C56.598373,99.024506 55.760666,100.642464 55.801060,104.581520 
	C55.975304,121.573410 55.862141,138.568161 55.879951,155.561859 
	C55.881290,156.838608 56.089546,158.115143 56.187901,159.235535 
	C56.819004,159.497482 57.116329,159.728577 57.414116,159.729156 
	C82.402954,159.778473 107.391823,159.809891 133.343323,159.842743 
M115.344955,181.896820 
	C116.506966,181.895416 117.755676,182.165359 118.810455,181.828354 
	C120.354240,181.335114 121.759033,180.406830 123.223061,179.663956 
	C121.710754,178.810883 120.207817,177.236664 118.684669,177.216858 
	C104.244995,177.029114 89.801231,177.045364 75.360718,177.198044 
	C73.893852,177.213531 72.440506,178.508026 70.076668,179.643250 
	C72.153221,180.846588 72.852715,181.602448 73.560379,181.610153 
	C87.166260,181.758545 100.773094,181.819153 115.344955,181.896820 
M89.910507,167.320541 
	C89.193192,169.037338 88.475883,170.754150 87.664993,172.694916 
	C94.553314,172.694916 100.611801,172.694916 107.144882,172.694916 
	C106.274834,170.637558 105.645447,168.964920 104.874229,167.360474 
	C102.638664,162.709518 93.213646,162.207901 89.910507,167.320541 
z"/>
<path fill="#85797D" opacity="1.000000" stroke="none" 
	d="
M112.014534,17.533665 
	C134.721542,22.403824 150.713409,35.715405 160.946396,56.339817 
	C165.330368,65.175659 166.786362,74.669792 167.399628,84.341019 
	C167.472610,85.492027 166.332870,86.719933 165.755264,87.912193 
	C164.855301,86.919762 163.503326,86.072479 163.130310,84.910835 
	C161.046234,78.420868 157.313461,75.102974 151.651596,75.091255 
	C146.157089,75.079880 142.464859,78.428741 140.299316,85.105682 
	C139.960312,86.150909 138.840164,86.942787 138.081207,87.851822 
	C137.358337,86.910904 136.302078,86.075119 135.966797,85.011971 
	C133.817566,78.196960 130.322479,75.006821 124.646919,74.949165 
	C119.124985,74.893089 115.514923,78.251831 113.160545,85.320557 
	C112.827171,86.321480 111.596886,87.023674 110.781723,87.864128 
	C110.155800,87.039749 109.258003,86.306274 108.947105,85.376549 
	C106.523247,78.128143 103.202560,75.135864 97.262581,75.050369 
	C92.039886,74.975197 88.273018,78.426628 85.946945,85.133232 
	C85.587318,86.170105 84.436966,86.932724 83.652290,87.822174 
	C82.932030,86.848915 81.919121,85.977470 81.539322,84.885765 
	C79.192261,78.139297 75.462807,74.864532 70.064079,75.043816 
	C64.360603,75.233215 61.013180,78.331078 58.868305,85.066109 
	C58.521763,86.154282 57.322010,86.970734 56.516651,87.912788 
	C55.667343,86.634392 54.371902,85.459175 54.048149,84.059242 
	C52.829998,78.791893 49.240959,75.465515 44.379585,75.427086 
	C40.876328,75.399391 37.136665,77.745003 33.939503,79.734413 
	C32.613541,80.559479 32.591797,83.305595 31.664005,85.007492 
	C31.053205,86.127914 29.883541,86.943665 28.964130,87.895844 
	C28.385111,86.706955 27.264143,85.498688 27.305870,84.332001 
	C28.535233,49.959686 52.198372,24.756636 80.879532,17.826523 
	C82.975159,17.320166 85.104942,16.955126 87.501160,16.932411 
	C85.418602,18.228167 82.974442,18.954535 80.718147,20.063217 
	C79.330437,20.745106 78.229828,22.011303 76.737747,23.181129 
	C75.927589,23.941442 75.379997,24.535767 74.464539,25.076431 
	C52.624207,30.472649 33.506001,57.079239 33.652489,73.263817 
	C41.341747,69.345154 48.441929,70.213112 55.019821,76.094910 
	C55.688206,77.053688 56.264202,77.700577 56.840202,78.347473 
	C57.728424,76.919174 58.616642,75.490875 59.866623,74.033218 
	C61.206928,73.377380 62.185478,72.750908 63.567883,72.070297 
	C69.085999,70.092117 74.017960,70.561691 78.976654,73.407410 
	C80.101997,74.186211 81.039665,74.702248 82.002815,75.549530 
	C84.106216,79.413383 85.225784,77.925148 86.335403,75.003860 
	C86.737801,74.600670 86.895973,74.298882 87.025696,74.000214 
	C86.997246,74.003334 87.019112,74.056084 87.377983,73.978455 
	C95.446602,69.331566 100.904007,69.642967 107.998672,75.026833 
	C108.004036,74.996979 107.943748,74.989586 108.018242,75.178017 
	C108.224495,75.631340 108.437332,75.780502 109.036583,75.940895 
	C110.595039,75.767952 111.848145,75.468040 113.420647,75.018753 
	C120.651062,69.320778 127.764107,70.077240 135.113754,74.485931 
	C136.096680,75.902336 136.950500,77.021484 138.082657,78.505463 
	C139.307861,77.061844 140.137299,76.084572 141.212799,74.854462 
	C147.860397,68.708496 154.766220,70.793633 162.745209,74.378891 
	C160.719131,68.480377 159.541672,63.636566 157.453003,59.224072 
	C149.642975,42.724670 137.950012,30.277630 119.844955,24.587473 
	C119.517624,24.200325 119.270111,24.065407 118.988922,24.003246 
	C118.996796,23.999809 118.988083,24.020029 118.951942,23.641365 
	C117.543671,22.174997 116.155632,21.106583 114.804794,19.993048 
	C113.848648,19.204868 112.942818,18.355642 112.014534,17.533665 
z"/>
<path fill="#7D7D83" opacity="1.000000" stroke="none" 
	d="
M77.000305,23.015137 
	C78.229828,22.011303 79.330437,20.745106 80.718147,20.063217 
	C82.974442,18.954535 85.418602,18.228167 87.865677,17.032200 
	C94.036766,16.693243 100.125648,16.662523 106.648239,17.114681 
	C108.054466,17.461317 109.026970,17.325073 109.999481,17.188831 
	C110.461708,17.201389 110.923935,17.213949 111.700348,17.380089 
	C112.942818,18.355642 113.848648,19.204868 114.804794,19.993048 
	C116.155632,21.106583 117.543671,22.174997 118.641830,23.599171 
	C117.608345,23.615608 116.848839,23.295576 115.981995,22.760128 
	C115.665085,22.266523 115.386269,22.132986 114.708984,22.094013 
	C113.940384,21.980408 113.501007,21.916891 112.813156,21.605692 
	C110.408066,21.107775 108.251434,20.857540 105.744171,20.653233 
	C104.922928,20.729103 104.452309,20.759045 103.725945,20.538523 
	C101.346542,20.509193 99.222885,20.730330 96.821526,20.925755 
	C96.358948,20.919886 96.174072,20.939726 95.759888,20.679901 
	C93.656769,20.644495 91.782959,20.888750 89.565964,21.107445 
	C88.165100,21.428261 87.107430,21.774635 85.688843,22.095634 
	C82.552055,22.385218 79.776176,22.700176 77.000305,23.015137 
z"/>
<path fill="#A3BAC1" opacity="1.000000" stroke="none" 
	d="
M99.290344,95.125732 
	C98.130180,95.645844 96.907211,95.737541 95.390778,95.622452 
	C95.044258,90.953644 94.809349,86.481995 95.044861,82.035248 
	C95.119095,80.633713 96.454002,79.298950 97.211929,77.933624 
	C97.858887,79.224525 98.984001,80.486282 99.064751,81.811684 
	C99.325706,86.094299 99.202637,90.400314 99.290344,95.125732 
z"/>
<path fill="#85797D" opacity="1.000000" stroke="none" 
	d="
M109.631622,17.095322 
	C109.026970,17.325073 108.054466,17.461317 107.037964,17.264891 
	C107.750565,16.955418 108.507156,16.978615 109.631622,17.095322 
z"/>
<path fill="#FBFCFC" opacity="0.000000" stroke="none" 
	d="
M132.862000,159.842667 
	C107.391823,159.809891 82.402954,159.778473 57.414116,159.729156 
	C57.116329,159.728577 56.819004,159.497482 56.187901,159.235535 
	C56.089546,158.115143 55.881290,156.838608 55.879951,155.561859 
	C55.862141,138.568161 55.975304,121.573410 55.801060,104.581520 
	C55.760666,100.642464 56.598373,99.024506 60.983547,99.060852 
	C85.306335,99.262451 109.631668,99.148987 133.956100,99.175278 
	C136.178696,99.177681 138.965912,98.492989 138.966324,102.230591 
	C138.968430,121.200790 138.967300,140.170990 138.967300,159.842743 
	C136.872040,159.842743 135.107681,159.842743 132.862000,159.842667 
M82.978096,113.973183 
	C82.978096,113.973183 82.930290,113.890854 82.437088,114.091324 
	C82.272316,114.397377 82.107544,114.703430 81.698242,115.449326 
	C81.475105,115.898674 81.251976,116.348030 80.507141,117.020073 
	C80.324600,117.340988 80.142059,117.661896 80.003624,117.994766 
	C80.003624,117.994766 79.971329,117.961945 79.486916,118.306404 
	C79.340111,118.866127 79.193306,119.425842 78.903908,120.357979 
	C78.903908,120.357979 78.888786,120.756477 78.348137,121.308357 
	C75.677460,128.862366 78.026268,135.217407 83.005096,140.998260 
	C83.005096,140.998260 83.065018,140.963654 83.345390,141.478836 
	C83.871414,141.701965 84.397438,141.925095 84.966972,142.064590 
	C84.966972,142.064590 84.875252,142.086441 85.040695,142.588684 
	C85.333679,142.766617 85.626656,142.944550 85.973961,143.028961 
	C85.973961,143.028961 85.879883,143.082306 86.060890,143.584000 
	C86.362946,143.755920 86.665001,143.927856 87.306091,144.552567 
	C87.835320,144.719330 88.364548,144.886093 89.339035,145.563431 
	C90.204231,145.793381 91.069420,146.023331 92.366325,146.633057 
	C92.927643,146.701660 93.488960,146.770279 94.897865,147.014694 
	C96.908440,146.941055 98.919006,146.867416 101.510620,146.847916 
	C102.019127,146.608002 102.527641,146.368103 103.704918,146.112106 
	C104.281288,145.805878 104.857666,145.499664 106.032295,145.189865 
	C106.698898,144.817978 107.365494,144.446075 108.645233,143.955704 
	C109.153351,143.356216 109.661476,142.756714 110.154610,142.080490 
	C110.154610,142.080490 110.098015,142.134415 110.614594,141.992462 
	C110.787567,141.693680 110.960548,141.394913 111.119019,141.163818 
	C111.119019,141.163818 111.187630,141.172897 111.851822,141.008194 
	C117.488838,136.129288 117.511162,129.690125 116.872429,122.472534 
	C116.617188,121.970947 116.361954,121.469360 116.062325,120.292603 
	C115.448418,119.466797 114.834503,118.640999 114.044350,117.798309 
	C114.044350,117.798309 114.222099,117.786537 114.197060,117.125206 
	C113.479660,116.064949 112.762260,115.004692 111.995720,113.987144 
	C111.995720,113.987144 112.058617,113.970863 111.892227,113.471939 
	C111.604950,113.286194 111.317665,113.100449 110.726700,112.384819 
	C109.865059,111.901863 109.003410,111.418915 107.765549,110.444214 
	C107.207565,110.192924 106.649582,109.941635 105.690422,109.235703 
	C104.778137,108.889244 103.865845,108.542793 102.232124,107.980705 
	C101.480072,107.943817 100.728020,107.906921 99.266922,107.496925 
	C97.430328,107.571877 95.593727,107.646828 93.486504,107.576431 
	C93.274727,107.654915 93.136314,107.802559 93.018707,107.989792 
	C93.018707,107.989792 93.007401,108.049034 92.429169,108.123650 
	C92.128159,108.362984 91.827141,108.602318 91.002365,108.779579 
	C90.664131,108.869774 90.325890,108.959969 89.440887,109.148903 
	C89.158958,109.384773 88.877037,109.620644 88.290245,109.807343 
	C88.290245,109.807343 88.007668,109.931847 87.443588,110.068939 
	C87.166855,110.334564 86.890129,110.600189 86.050972,110.969421 
	C85.344009,111.580025 84.637054,112.190620 83.443748,113.036469 
	C83.259308,113.336342 83.074867,113.636208 82.978096,113.973183 
M91.227425,153.259674 
	C88.280678,151.574570 85.679581,151.072723 84.098564,154.062958 
	C84.370392,154.910950 84.642212,155.758942 84.914032,156.606934 
	C87.174683,155.700455 89.435341,154.793991 91.227425,153.259674 
M104.144165,155.814499 
	C105.620186,155.821716 107.122353,155.988159 108.558487,155.752380 
	C109.082237,155.666397 109.787125,154.626282 109.792099,154.016403 
	C109.797066,153.406494 109.063744,152.292053 108.596573,152.260910 
	C106.261047,152.105209 103.375107,151.379974 104.144165,155.814499 
M98.388084,152.061951 
	C96.874474,152.719360 95.360870,153.376770 93.847260,154.034180 
	C94.026062,154.678085 94.204865,155.321991 94.383667,155.965897 
	C96.437660,155.748108 98.491661,155.530304 100.545654,155.312515 
	C100.083672,154.277802 99.621689,153.243103 98.388084,152.061951 
z"/>
<path fill="#F3EFF0" opacity="0.000000" stroke="none" 
	d="
M114.862350,181.897369 
	C100.773094,181.819153 87.166260,181.758545 73.560379,181.610153 
	C72.852715,181.602448 72.153221,180.846588 70.076668,179.643250 
	C72.440506,178.508026 73.893852,177.213531 75.360718,177.198044 
	C89.801231,177.045364 104.244995,177.029114 118.684669,177.216858 
	C120.207817,177.236664 121.710754,178.810883 123.223053,179.663940 
	C121.759033,180.406830 120.354240,181.335114 118.810455,181.828354 
	C117.755676,182.165359 116.506966,181.895416 114.862350,181.897369 
z"/>
<path fill="#FCFAFB" opacity="0.000000" stroke="none" 
	d="
M90.057190,166.937531 
	C93.213646,162.207901 102.638664,162.709518 104.874229,167.360474 
	C105.645447,168.964920 106.274834,170.637558 107.144882,172.694916 
	C100.611801,172.694916 94.553314,172.694916 87.664993,172.694916 
	C88.475883,170.754150 89.193192,169.037338 90.057190,166.937531 
z"/>
<path fill="#F6FDFD" opacity="0.000000" stroke="none" 
	d="
M103.981697,20.788986 
	C104.452309,20.759045 104.922928,20.729103 105.775200,21.012974 
	C107.675987,22.274584 109.195114,23.222383 110.920685,24.441116 
	C127.857353,36.971657 132.759171,54.934898 134.984650,74.188667 
	C127.764107,70.077240 120.651062,69.320778 113.083801,74.738319 
	C111.957901,67.055946 112.111198,59.400368 110.869019,51.978344 
	C109.113861,41.491413 106.327339,31.177094 103.981697,20.788986 
z"/>
<path fill="#F6FDFD" opacity="0.000000" stroke="none" 
	d="
M95.989204,20.959564 
	C96.174072,20.939726 96.358948,20.919886 96.989883,21.224419 
	C99.370720,24.835011 102.523247,27.945358 103.027679,31.438150 
	C105.118408,45.914761 106.408951,60.506943 107.993301,75.056686 
	C100.904007,69.642967 95.446602,69.331566 87.283028,73.514511 
	C87.539474,55.327244 87.146011,37.332497 95.989204,20.959564 
z"/>
<path fill="#F8FBFB" opacity="0.000000" stroke="none" 
	d="
M54.927433,75.783028 
	C48.441929,70.213112 41.341747,69.345154 33.652489,73.263817 
	C33.506001,57.079239 52.624207,30.472649 74.390457,25.393108 
	C62.293911,40.143871 56.500420,57.129940 54.927433,75.783028 
z"/>
<path fill="#F9FBFB" opacity="0.000000" stroke="none" 
	d="
M119.966301,24.763510 
	C137.950012,30.277630 149.642975,42.724670 157.453003,59.224072 
	C159.541672,63.636566 160.719131,68.480377 162.745209,74.378891 
	C154.766220,70.793633 147.860397,68.708496 140.881516,74.649773 
	C139.915192,73.615746 139.285797,72.557938 139.173233,71.447731 
	C137.389053,53.849781 131.466324,38.066509 119.292389,25.035238 
	C119.530167,24.981466 119.966301,24.763510 119.966301,24.763510 
z"/>
<path fill="#FCFEFE" opacity="0.000000" stroke="none" 
	d="
M78.788971,73.144638 
	C74.017960,70.561691 69.085999,70.092117 63.274185,71.835175 
	C61.996929,70.077934 61.417225,68.501671 60.851227,66.604050 
	C60.947304,65.862457 61.029682,65.442223 61.442284,64.975250 
	C65.304390,63.053593 63.060631,60.340805 62.822540,57.595257 
	C62.944176,56.858326 63.033321,56.440399 63.490788,55.959297 
	C64.542175,53.570984 65.225250,51.245850 65.892265,48.928551 
	C65.876205,48.936378 65.873322,48.900635 66.235153,48.885666 
	C68.697731,44.548820 70.798470,40.226936 72.893097,35.937523 
	C72.886993,35.969997 72.877045,35.899467 73.238869,35.885292 
	C74.044090,34.890194 74.487488,33.909271 74.963013,32.964958 
	C74.995140,33.001568 74.925621,32.930286 75.311005,32.950191 
	C76.759422,31.611418 77.822456,30.252739 78.937973,28.947567 
	C78.990456,29.001074 78.895096,28.886454 79.279877,28.920204 
	C82.141808,29.315109 84.618950,29.676264 87.075974,30.364082 
	C86.976913,31.119642 86.897972,31.548538 86.463104,32.065517 
	C83.684723,35.486610 81.445511,49.778828 82.741158,53.721195 
	C82.785751,53.856861 82.979912,53.943371 83.111557,54.420906 
	C83.034187,55.519299 82.949623,56.249573 82.505814,57.074333 
	C82.131660,59.461578 82.116760,61.754337 82.115631,64.372742 
	C82.082710,65.130051 82.036026,65.561714 81.614151,66.074020 
	C80.422295,68.484650 79.605629,70.814644 78.788971,73.144638 
z"/>
<path fill="#85BECC" opacity="1.000000" stroke="none" 
	d="
M61.112057,65.021996 
	C61.029682,65.442223 60.947304,65.862457 60.606567,66.917778 
	C60.067089,69.722771 59.785976,71.892677 59.504864,74.062576 
	C58.616642,75.490875 57.728424,76.919174 56.840202,78.347473 
	C56.264202,77.700577 55.688206,77.053688 55.019821,76.094910 
	C56.500420,57.129940 62.293911,40.143871 74.758331,25.446766 
	C75.379997,24.535767 75.927589,23.941442 76.737747,23.181128 
	C79.776176,22.700176 82.552055,22.385218 85.540405,22.389145 
	C83.466957,24.767502 81.181023,26.826977 78.895096,28.886452 
	C78.895096,28.886454 78.990456,29.001074 78.643425,29.069727 
	C77.172806,30.402349 76.049210,31.666319 74.925621,32.930286 
	C74.925621,32.930286 74.995140,33.001568 74.678101,33.101540 
	C73.866386,34.100834 73.371719,35.000153 72.877045,35.899467 
	C72.877045,35.899467 72.886993,35.969997 72.586273,36.083969 
	C70.148148,40.432171 68.010735,44.666401 65.873322,48.900635 
	C65.873322,48.900635 65.876205,48.936378 65.607132,49.128853 
	C64.599533,51.555038 63.860996,53.788757 63.122467,56.022476 
	C63.033321,56.440399 62.944176,56.858326 62.588379,57.868187 
	C61.918503,60.647415 61.515278,62.834705 61.112057,65.021996 
z"/>
<path fill="#84C0CC" opacity="1.000000" stroke="none" 
	d="
M119.054619,25.089010 
	C131.466324,38.066509 137.389053,53.849781 139.173233,71.447731 
	C139.285797,72.557938 139.915192,73.615746 140.635437,74.902618 
	C140.137299,76.084572 139.307861,77.061844 138.082657,78.505463 
	C136.950500,77.021484 136.096680,75.902336 135.113754,74.485931 
	C132.759171,54.934898 127.857353,36.971657 111.231056,24.294212 
	C111.910530,23.202042 112.486084,22.527710 113.061630,21.853374 
	C113.501007,21.916891 113.940384,21.980408 114.829880,22.290886 
	C115.499466,22.776669 115.769249,22.922567 116.089333,22.975544 
	C116.848839,23.295576 117.608345,23.615608 118.677963,23.977835 
	C118.988083,24.020029 118.996796,23.999809 118.996048,24.274586 
	C119.015076,24.729244 119.034851,24.909126 119.054619,25.089010 
z"/>
<path fill="#85BECA" opacity="1.000000" stroke="none" 
	d="
M107.998672,75.026833 
	C106.408951,60.506943 105.118408,45.914761 103.027679,31.438150 
	C102.523247,27.945358 99.370720,24.835011 97.267593,21.250130 
	C99.222885,20.730330 101.346542,20.509193 103.725945,20.538523 
	C106.327339,31.177094 109.113861,41.491413 110.869019,51.978344 
	C112.111198,59.400368 111.957901,67.055946 112.764404,74.887695 
	C111.848145,75.468040 110.595039,75.767952 108.994598,75.731720 
	C108.499466,75.110069 108.264961,74.974739 107.943748,74.989586 
	C107.943748,74.989586 108.004036,74.996979 107.998672,75.026833 
z"/>
<path fill="#84BECA" opacity="1.000000" stroke="none" 
	d="
M86.819023,31.977432 
	C86.897972,31.548538 86.976913,31.119642 87.327316,30.115551 
	C88.368896,26.737906 89.139023,23.935457 89.909149,21.133007 
	C91.782959,20.888750 93.656769,20.644495 95.759888,20.679901 
	C87.146011,37.332497 87.539474,55.327244 86.924156,73.592133 
	C87.019112,74.056084 86.997246,74.003334 86.769226,74.075043 
	C86.391197,74.466255 86.241188,74.785767 86.091171,75.105270 
	C85.225784,77.925148 84.106216,79.413383 82.016968,75.080261 
	C82.000206,71.517632 81.994781,68.755508 81.989349,65.993385 
	C82.036026,65.561714 82.082710,65.130051 82.354385,64.064056 
	C82.674614,61.279766 82.769836,59.129807 82.865067,56.979847 
	C82.949623,56.249573 83.034187,55.519299 83.356705,54.105949 
	C84.669449,46.274399 85.744240,39.125916 86.819023,31.977432 
z"/>
<path fill="#EAFCFC" opacity="0.000000" stroke="none" 
	d="
M81.614151,66.074020 
	C81.994781,68.755508 82.000206,71.517632 81.991486,74.749023 
	C81.039665,74.702248 80.101997,74.186211 78.976654,73.407410 
	C79.605629,70.814644 80.422295,68.484650 81.614151,66.074020 
z"/>
<path fill="#EAFCFC" opacity="0.000000" stroke="none" 
	d="
M59.866623,74.033218 
	C59.785976,71.892677 60.067089,69.722771 60.592861,67.239136 
	C61.417225,68.501671 61.996929,70.077934 62.870331,71.889313 
	C62.185478,72.750908 61.206928,73.377380 59.866623,74.033218 
z"/>
<path fill="#7D7D83" opacity="1.000000" stroke="none" 
	d="
M119.292389,25.035238 
	C119.034851,24.909126 119.015076,24.729244 118.988182,24.278021 
	C119.270111,24.065407 119.517624,24.200325 119.844955,24.587473 
	C119.966301,24.763510 119.530167,24.981466 119.292389,25.035238 
z"/>
<path fill="#F6FDFD" opacity="1.000000" stroke="none" 
	d="
M86.335403,75.003860 
	C86.241188,74.785767 86.391197,74.466255 86.797668,74.071922 
	C86.895973,74.298882 86.737801,74.600670 86.335403,75.003860 
z"/>
<path fill="#F6FDFD" opacity="1.000000" stroke="none" 
	d="
M108.018242,75.178017 
	C108.264961,74.974739 108.499466,75.110069 108.689240,75.604759 
	C108.437332,75.780502 108.224495,75.631340 108.018242,75.178017 
z"/>
<path fill="#EAFCFC" opacity="0.000000" stroke="none" 
	d="
M89.565964,21.107447 
	C89.139023,23.935457 88.368896,26.737906 87.347427,29.788885 
	C84.618950,29.676264 82.141808,29.315109 79.279877,28.920204 
	C81.181023,26.826977 83.466957,24.767502 85.901321,22.414520 
	C87.107430,21.774635 88.165100,21.428261 89.565964,21.107447 
z"/>
<path fill="#85BECA" opacity="1.000000" stroke="none" 
	d="
M112.813156,21.605694 
	C112.486084,22.527710 111.910530,23.202042 111.024612,24.023277 
	C109.195114,23.222383 107.675987,22.274584 106.125839,20.967045 
	C108.251434,20.857540 110.408066,21.107775 112.813156,21.605694 
z"/>
<path fill="#85BECA" opacity="1.000000" stroke="none" 
	d="
M115.981995,22.760128 
	C115.769249,22.922567 115.499466,22.776669 115.159103,22.340977 
	C115.386269,22.132986 115.665085,22.266523 115.981995,22.760128 
z"/>
<path fill="#76BECE" opacity="1.000000" stroke="none" 
	d="
M108.141769,110.935959 
	C109.003410,111.418915 109.865059,111.901863 110.974579,112.890305 
	C111.501175,113.587479 111.779892,113.779175 112.058617,113.970863 
	C112.058617,113.970863 111.995720,113.987144 112.003983,114.354469 
	C112.748863,115.743378 113.485481,116.764954 114.222099,117.786537 
	C114.222099,117.786537 114.044350,117.798309 114.082474,118.149109 
	C114.782639,119.322525 115.444679,120.145149 116.106720,120.967773 
	C116.361954,121.469360 116.617188,121.970947 116.603889,123.053696 
	C114.818382,126.263657 118.347153,130.965302 112.912033,131.584595 
	C110.763618,128.202209 107.611450,128.077560 106.600258,131.119019 
	C105.709114,133.799362 105.455238,136.691589 104.788788,140.176102 
	C106.620392,139.535904 107.646927,139.177094 109.040894,138.898865 
	C110.001434,139.710602 110.594528,140.441742 111.187630,141.172897 
	C111.187630,141.172897 111.119019,141.163818 110.874771,141.211334 
	C110.453018,141.550705 110.275513,141.842560 110.098007,142.134415 
	C110.098015,142.134415 110.154610,142.080490 109.817696,142.103607 
	C108.997879,142.775879 108.514984,143.425034 108.032089,144.074188 
	C107.365494,144.446075 106.698898,144.817978 105.375763,145.153000 
	C104.158195,145.453476 103.597168,145.790833 103.036148,146.128189 
	C102.527641,146.368103 102.019127,146.608002 100.946350,146.585480 
	C98.271484,146.494980 96.160881,146.666931 94.050278,146.838898 
	C93.488960,146.770279 92.927643,146.701660 91.990509,146.122498 
	C90.707726,145.425568 89.800751,145.239197 88.893776,145.052841 
	C88.364548,144.886093 87.835320,144.719330 87.035667,144.081848 
	C86.470123,143.434845 86.175003,143.258575 85.879883,143.082306 
	C85.879883,143.082306 85.973961,143.028961 85.861023,142.826233 
	C85.457146,142.444489 85.166199,142.265457 84.875252,142.086441 
	C84.875252,142.086441 84.966972,142.064590 84.824860,141.831253 
	C84.143501,141.386490 83.604256,141.175079 83.065018,140.963654 
	C83.065018,140.963654 83.005096,140.998260 83.020035,140.601990 
	C83.764999,139.438095 84.495026,138.670456 85.503525,138.071472 
	C86.895309,139.097946 88.008636,139.955780 90.423058,141.816147 
	C89.422562,137.173386 89.018379,133.952896 87.994186,130.943375 
	C87.068268,128.222610 83.666634,128.381149 80.924538,130.971420 
	C79.968292,127.520958 79.428543,124.138718 78.888786,120.756477 
	C78.888786,120.756477 78.903908,120.357979 79.215805,119.999985 
	C79.675583,119.081978 79.823456,118.521965 79.971329,117.961945 
	C79.971329,117.961945 80.003624,117.994766 80.230682,117.865723 
	C80.648117,117.423576 80.838478,117.110481 81.028847,116.797379 
	C81.251976,116.348030 81.475105,115.898674 82.055565,115.112900 
	C82.585358,114.481277 82.757828,114.186066 82.930290,113.890854 
	C82.930290,113.890854 82.978096,113.973183 83.189316,113.852448 
	C83.577042,113.421547 83.753563,113.111382 83.930084,112.801224 
	C84.637054,112.190620 85.344009,111.580025 86.630478,110.873505 
	C87.475883,110.495667 87.741776,110.213753 88.007660,109.931839 
	C88.007668,109.931847 88.290245,109.807343 88.730957,109.804749 
	C89.443672,109.551491 89.715660,109.300827 89.987648,109.050171 
	C90.325890,108.959969 90.664131,108.869774 91.564331,108.787415 
	C92.420006,108.546509 92.713707,108.297775 93.007401,108.049034 
	C93.007401,108.049034 93.018707,107.989792 93.168411,107.972046 
	C93.318108,107.954300 93.757133,107.721786 93.757133,107.721786 
	C95.593727,107.646828 97.430328,107.571877 99.781242,107.950073 
	C101.181564,108.334251 102.067558,108.265289 102.953560,108.196335 
	C103.865845,108.542793 104.778137,108.889244 106.007530,109.777832 
	C106.930351,110.525291 107.536057,110.730629 108.141769,110.935959 
M109.225616,116.756874 
	C108.059402,115.951256 106.893188,115.145630 105.446877,114.146515 
	C106.016945,124.332054 106.739616,126.688629 112.874046,124.186813 
	C111.993599,122.115540 111.111618,120.040634 110.472984,117.696411 
	C110.244751,117.495148 110.016518,117.293892 109.225616,116.756874 
M85.734184,116.493195 
	C85.186615,116.987137 84.639053,117.481071 83.579193,118.263191 
	C83.424843,118.613907 83.270485,118.964622 83.015244,120.061264 
	C82.702332,121.540779 82.389420,123.020287 82.062584,124.565613 
	C88.104485,125.151886 88.104485,125.151886 89.433182,114.050674 
	C88.440826,114.421722 87.634682,114.723137 86.451645,115.256096 
	C86.222099,115.458786 86.071281,115.708969 85.734184,116.493195 
M97.489540,142.536697 
	C101.460831,139.064575 101.966446,134.522415 101.820694,129.406250 
	C98.453468,129.406250 95.448540,129.406250 90.921021,129.406250 
	C93.157860,134.258789 95.004166,138.264099 97.489540,142.536697 
M102.002518,122.648788 
	C101.262398,119.946213 100.691856,117.181961 99.737244,114.557404 
	C98.656914,111.587196 96.703232,110.659653 95.068039,114.008537 
	C93.448143,117.326050 92.480980,120.962273 91.227531,124.458710 
	C91.634995,124.837059 92.042458,125.215416 92.449921,125.593773 
	C95.622948,124.894897 98.795967,124.196030 102.002518,122.648788 
z"/>
<path fill="#85C0CC" opacity="1.000000" stroke="none" 
	d="
M78.618462,121.032417 
	C79.428543,124.138718 79.968292,127.520958 81.071350,131.246078 
	C82.831451,133.693573 84.028252,135.798203 85.225052,137.902817 
	C84.495026,138.670456 83.764999,139.438095 83.035820,140.571198 
	C78.026268,135.217407 75.677460,128.862366 78.618462,121.032417 
z"/>
<path fill="#81BFCB" opacity="1.000000" stroke="none" 
	d="
M111.519730,141.090546 
	C110.594528,140.441742 110.001434,139.710602 109.240326,138.617554 
	C110.350273,136.164474 111.628242,134.073273 112.906204,131.982071 
	C118.347153,130.965302 114.818382,126.263657 116.587631,123.346542 
	C117.511162,129.690125 117.488838,136.129288 111.519730,141.090546 
z"/>
<path fill="#EBEAF0" opacity="1.000000" stroke="none" 
	d="
M91.461716,153.573608 
	C89.435341,154.793991 87.174683,155.700455 84.914032,156.606934 
	C84.642212,155.758942 84.370392,154.910950 84.098564,154.062958 
	C85.679581,151.072723 88.280678,151.574570 91.461716,153.573608 
z"/>
<path fill="#EAE9EE" opacity="1.000000" stroke="none" 
	d="
M103.817680,155.588165 
	C103.375107,151.379974 106.261047,152.105209 108.596573,152.260910 
	C109.063744,152.292053 109.797066,153.406494 109.792099,154.016403 
	C109.787125,154.626282 109.082237,155.666397 108.558487,155.752380 
	C107.122353,155.988159 105.620186,155.821716 103.817680,155.588165 
z"/>
<path fill="#EAEAEF" opacity="1.000000" stroke="none" 
	d="
M98.773895,152.135162 
	C99.621689,153.243103 100.083672,154.277802 100.545654,155.312515 
	C98.491661,155.530304 96.437660,155.748108 94.383667,155.965897 
	C94.204865,155.321991 94.026062,154.678085 93.847260,154.034180 
	C95.360870,153.376770 96.874474,152.719360 98.773895,152.135162 
z"/>
<path fill="#85C0CC" opacity="1.000000" stroke="none" 
	d="
M94.474075,146.926788 
	C96.160881,146.666931 98.271484,146.494980 100.655838,146.558411 
	C98.919006,146.867416 96.908440,146.941055 94.474075,146.926788 
z"/>
<path fill="#88C2CE" opacity="1.000000" stroke="none" 
	d="
M114.209579,117.455872 
	C113.485481,116.764954 112.748863,115.743378 112.028557,114.333115 
	C112.762260,115.004692 113.479660,116.064949 114.209579,117.455872 
z"/>
<path fill="#88C2CE" opacity="1.000000" stroke="none" 
	d="
M116.084526,120.630188 
	C115.444679,120.145149 114.782639,119.322525 114.170593,118.157547 
	C114.834503,118.640999 115.448418,119.466797 116.084526,120.630188 
z"/>
<path fill="#81BFCB" opacity="1.000000" stroke="none" 
	d="
M108.338661,144.014954 
	C108.514984,143.425034 108.997879,142.775879 109.825195,142.141968 
	C109.661476,142.756714 109.153351,143.356216 108.338661,144.014954 
z"/>
<path fill="#85C0CC" opacity="1.000000" stroke="none" 
	d="
M89.116409,145.308136 
	C89.800751,145.239197 90.707726,145.425568 91.774658,145.932617 
	C91.069420,146.023331 90.204231,145.793381 89.116409,145.308136 
z"/>
<path fill="#85C0CC" opacity="1.000000" stroke="none" 
	d="
M102.592842,108.088516 
	C102.067558,108.265289 101.181564,108.334251 100.135765,108.136620 
	C100.728020,107.906921 101.480072,107.943817 102.592842,108.088516 
z"/>
<path fill="#85C0CC" opacity="1.000000" stroke="none" 
	d="
M79.729126,118.134171 
	C79.823456,118.521965 79.675583,119.081978 79.287109,119.813782 
	C79.193306,119.425842 79.340111,118.866127 79.729126,118.134171 
z"/>
<path fill="#85C0CC" opacity="1.000000" stroke="none" 
	d="
M107.953659,110.690086 
	C107.536057,110.730629 106.930351,110.525291 106.208122,110.005157 
	C106.649582,109.941635 107.207565,110.192924 107.953659,110.690086 
z"/>
<path fill="#85C0CC" opacity="1.000000" stroke="none" 
	d="
M103.370529,146.120148 
	C103.597168,145.790833 104.158195,145.453476 105.076630,145.154785 
	C104.857666,145.499664 104.281288,145.805878 103.370529,146.120148 
z"/>
<path fill="#85C0CC" opacity="1.000000" stroke="none" 
	d="
M83.205200,141.221252 
	C83.604256,141.175079 84.143501,141.386490 84.803101,141.873077 
	C84.397438,141.925095 83.871414,141.701965 83.205200,141.221252 
z"/>
<path fill="#85C0CC" opacity="1.000000" stroke="none" 
	d="
M92.718285,108.086342 
	C92.713707,108.297775 92.420006,108.546509 91.826218,108.818451 
	C91.827141,108.602318 92.128159,108.362984 92.718285,108.086342 
z"/>
<path fill="#85C0CC" opacity="1.000000" stroke="none" 
	d="
M93.621819,107.649109 
	C93.757133,107.721786 93.318108,107.954300 93.194687,107.986832 
	C93.136314,107.802559 93.274727,107.654915 93.621819,107.649109 
z"/>
<path fill="#85C0CC" opacity="1.000000" stroke="none" 
	d="
M85.970383,143.333160 
	C86.175003,143.258575 86.470123,143.434845 86.866150,143.855453 
	C86.665001,143.927856 86.362946,143.755920 85.970383,143.333160 
z"/>
<path fill="#85C0CC" opacity="1.000000" stroke="none" 
	d="
M84.957977,142.337555 
	C85.166199,142.265457 85.457146,142.444489 85.833862,142.872986 
	C85.626656,142.944550 85.333679,142.766617 84.957977,142.337555 
z"/>
<path fill="#81BFCB" opacity="1.000000" stroke="none" 
	d="
M110.356300,142.063446 
	C110.275513,141.842560 110.453018,141.550705 110.882019,141.177490 
	C110.960548,141.394913 110.787567,141.693680 110.356300,142.063446 
z"/>
<path fill="#85C0CC" opacity="1.000000" stroke="none" 
	d="
M82.683685,113.991089 
	C82.757828,114.186066 82.585358,114.481277 82.177826,114.892982 
	C82.107544,114.703430 82.272316,114.397377 82.683685,113.991089 
z"/>
<path fill="#85C0CC" opacity="1.000000" stroke="none" 
	d="
M89.714264,109.099533 
	C89.715660,109.300827 89.443672,109.551491 88.883392,109.829330 
	C88.877037,109.620644 89.158958,109.384773 89.714264,109.099533 
z"/>
<path fill="#85C0CC" opacity="1.000000" stroke="none" 
	d="
M87.725624,110.000389 
	C87.741776,110.213753 87.475883,110.495667 86.911697,110.821701 
	C86.890129,110.600189 87.166855,110.334564 87.725624,110.000389 
z"/>
<path fill="#85C0CC" opacity="1.000000" stroke="none" 
	d="
M83.686920,112.918839 
	C83.753563,113.111382 83.577042,113.421547 83.145477,113.833893 
	C83.074867,113.636208 83.259308,113.336342 83.686920,112.918839 
z"/>
<path fill="#85C0CC" opacity="1.000000" stroke="none" 
	d="
M80.767990,116.908722 
	C80.838478,117.110481 80.648117,117.423576 80.208633,117.859741 
	C80.142059,117.661896 80.324600,117.340988 80.767990,116.908722 
z"/>
<path fill="#88C2CE" opacity="1.000000" stroke="none" 
	d="
M111.975418,113.721405 
	C111.779892,113.779175 111.501175,113.587479 111.126419,113.155243 
	C111.317665,113.100449 111.604950,113.286194 111.975418,113.721405 
z"/>
<path fill="#EAFCFC" opacity="0.000000" stroke="none" 
	d="
M86.463104,32.065517 
	C85.744240,39.125916 84.669449,46.274399 83.349510,53.737839 
	C82.979912,53.943371 82.785751,53.856861 82.741158,53.721195 
	C81.445511,49.778828 83.684723,35.486610 86.463104,32.065517 
z"/>
<path fill="#EAFCFC" opacity="0.000000" stroke="none" 
	d="
M66.235153,48.885666 
	C68.010735,44.666401 70.148148,40.432171 72.592384,36.051495 
	C70.798470,40.226936 68.697731,44.548820 66.235153,48.885666 
z"/>
<path fill="#EAFCFC" opacity="0.000000" stroke="none" 
	d="
M61.442276,64.975250 
	C61.515278,62.834705 61.918503,60.647415 62.555889,58.187195 
	C63.060631,60.340805 65.304390,63.053593 61.442276,64.975250 
z"/>
<path fill="#EAFCFC" opacity="0.000000" stroke="none" 
	d="
M82.505814,57.074333 
	C82.769836,59.129807 82.674614,61.279766 82.340622,63.738411 
	C82.116760,61.754337 82.131660,59.461578 82.505814,57.074333 
z"/>
<path fill="#EAFCFC" opacity="0.000000" stroke="none" 
	d="
M63.490784,55.959297 
	C63.860996,53.788757 64.599533,51.555038 65.623199,49.121021 
	C65.225250,51.245850 64.542175,53.570984 63.490784,55.959297 
z"/>
<path fill="#EAFCFC" opacity="0.000000" stroke="none" 
	d="
M75.311005,32.950191 
	C76.049210,31.666319 77.172806,30.402349 78.590942,29.016220 
	C77.822456,30.252739 76.759422,31.611418 75.311005,32.950191 
z"/>
<path fill="#EAFCFC" opacity="0.000000" stroke="none" 
	d="
M73.238869,35.885292 
	C73.371719,35.000153 73.866386,34.100834 74.645973,33.064934 
	C74.487488,33.909271 74.044090,34.890194 73.238869,35.885292 
z"/>
<path fill="#E5FBFD" opacity="0.000000" stroke="none" 
	d="
M97.170006,142.403061 
	C95.004166,138.264099 93.157860,134.258789 90.921021,129.406250 
	C95.448540,129.406250 98.453468,129.406250 101.820694,129.406250 
	C101.966446,134.522415 101.460831,139.064575 97.170006,142.403061 
z"/>
<path fill="#E8FEFE" opacity="0.000000" stroke="none" 
	d="
M101.985748,123.072968 
	C98.795967,124.196030 95.622948,124.894897 92.449921,125.593773 
	C92.042458,125.215416 91.634995,124.837059 91.227531,124.458710 
	C92.480980,120.962273 93.448143,117.326050 95.068039,114.008537 
	C96.703232,110.659653 98.656914,111.587196 99.737244,114.557404 
	C100.691856,117.181961 101.262398,119.946213 101.985748,123.072968 
z"/>
<path fill="#D8F7FA" opacity="0.000000" stroke="none" 
	d="
M85.503517,138.071472 
	C84.028252,135.798203 82.831451,133.693573 81.487839,131.314301 
	C83.666634,128.381149 87.068268,128.222610 87.994186,130.943375 
	C89.018379,133.952896 89.422562,137.173386 90.423058,141.816147 
	C88.008636,139.955780 86.895309,139.097946 85.503517,138.071472 
z"/>
<path fill="#DDFBFD" opacity="0.000000" stroke="none" 
	d="
M112.912033,131.584595 
	C111.628242,134.073273 110.350273,136.164474 108.872887,138.536987 
	C107.646927,139.177094 106.620392,139.535904 104.788788,140.176102 
	C105.455238,136.691589 105.709114,133.799362 106.600258,131.119019 
	C107.611450,128.077560 110.763618,128.202209 112.912033,131.584595 
z"/>
<path fill="#DFFCFD" opacity="0.000000" stroke="none" 
	d="
M84.091476,117.975014 
	C84.639053,117.481071 85.186615,116.987137 86.079330,116.155731 
	C86.711136,115.631035 86.845825,115.366470 86.828537,115.024559 
	C87.634682,114.723137 88.440826,114.421722 89.433182,114.050674 
	C88.104485,125.151886 88.104485,125.151886 82.062584,124.565613 
	C82.389420,123.020287 82.702332,121.540779 83.292892,119.515366 
	C83.744194,118.637978 83.917839,118.306496 84.091476,117.975014 
z"/>
<path fill="#DDFBFD" opacity="0.000000" stroke="none" 
	d="
M110.229630,117.965721 
	C111.111618,120.040634 111.993599,122.115540 112.874046,124.186813 
	C106.739616,126.688629 106.016945,124.332054 105.446877,114.146515 
	C106.893188,115.145630 108.059402,115.951256 109.595016,117.154305 
	C109.964409,117.551735 110.229630,117.965721 110.229630,117.965721 
z"/>
<path fill="#85C0CC" opacity="1.000000" stroke="none" 
	d="
M83.835335,118.119102 
	C83.917839,118.306496 83.744194,118.637978 83.343338,119.142403 
	C83.270485,118.964622 83.424843,118.613907 83.835335,118.119102 
z"/>
<path fill="#88C2CE" opacity="1.000000" stroke="none" 
	d="
M110.351303,117.831070 
	C110.229630,117.965721 109.964409,117.551735 109.876343,117.322182 
	C110.016518,117.293892 110.244751,117.495148 110.351303,117.831070 
z"/>
<path fill="#85C0CC" opacity="1.000000" stroke="none" 
	d="
M86.640091,115.140327 
	C86.845825,115.366470 86.711136,115.631035 86.211838,115.912445 
	C86.071281,115.708969 86.222099,115.458786 86.640091,115.140327 
z"/>
</svg>