<svg version="1.1" id="Layer_1" xmlns="http://www.w3.org/2000/svg" xmlns:xlink="http://www.w3.org/1999/xlink" x="0px" y="0px"
	 width="100%" viewBox="0 0 512 512" enable-background="new 0 0 512 512" xml:space="preserve">
<path fill="#000000" opacity="0.000000" stroke="none" 
	d="
M513.000000,183.000000 
	C513.000000,293.306519 513.000000,403.113037 513.000000,512.959778 
	C342.401794,512.959778 171.803604,512.959778 1.102697,512.959778 
	C1.102697,342.443512 1.102697,171.886932 1.102697,1.165182 
	C171.666534,1.165182 342.333252,1.165182 513.000000,1.165182 
	C513.000000,61.529697 513.000000,122.014847 513.000000,183.000000 
M250.046310,251.982025 
	C216.215805,251.988007 182.381348,252.279373 148.557404,251.811783 
	C139.388641,251.685028 134.880783,257.483521 134.908157,265.341797 
	C135.087585,316.837463 134.996887,368.334106 135.003464,419.830414 
	C135.004745,429.865875 139.099640,433.993317 149.051147,433.997253 
	C173.549393,434.006927 198.047653,434.000122 222.545898,433.999969 
	C224.484329,433.999969 226.422760,434.000000 229.796066,434.000000 
	C226.559784,440.235748 224.083466,445.746399 220.945770,450.850433 
	C217.636002,456.234283 213.389877,460.307159 206.015594,459.110504 
	C202.118591,458.478119 197.986618,458.618500 194.048523,459.111420 
	C190.387985,459.569580 186.587158,460.436432 183.303619,462.050232 
	C176.993683,465.151367 174.209076,473.223267 176.100433,481.044525 
	C177.619370,487.325684 183.870514,491.995789 190.826767,491.996796 
	C234.990280,492.003052 279.153809,492.003540 323.317322,491.996368 
	C330.443085,491.995239 337.298767,486.309204 337.991791,479.876343 
	C339.100464,469.585876 334.859985,461.386963 326.709076,460.146942 
	C319.399109,459.034851 311.873535,459.363892 304.447662,458.970856 
	C302.857208,458.886688 300.824371,458.964691 299.780884,458.060944 
	C292.460327,451.720581 287.314301,444.008606 285.460602,434.000244 
	C312.562805,434.000244 339.221283,434.024048 365.879669,433.986511 
	C374.528625,433.974335 378.985046,429.528198 378.988739,420.927338 
	C379.011139,368.764404 379.007355,316.601440 378.992401,264.438507 
	C378.990021,256.139008 374.796204,252.007095 366.511780,252.000183 
	C331.681793,251.971146 296.851807,251.942810 262.003479,250.993317 
	C262.002472,237.689331 262.033691,224.385208 261.978699,211.081451 
	C261.964233,207.578079 262.034332,204.061203 256.832306,203.931351 
	C251.543335,203.799347 250.997513,207.039856 250.997299,211.005554 
	C250.996567,224.642075 250.985764,238.278595 250.046310,251.982025 
M160.969452,207.550339 
	C166.558334,201.154312 173.758698,197.750214 182.062454,197.058838 
	C198.845001,195.661484 214.863358,208.635452 215.033096,226.267441 
	C215.069519,230.052185 217.301208,231.893066 221.054214,232.004379 
	C224.700699,232.112534 225.873505,230.232712 226.062378,226.770859 
	C226.508163,218.599792 229.451996,211.506042 235.631516,205.828049 
	C245.288315,196.954941 256.332214,194.494904 268.436066,199.304657 
	C280.381195,204.051331 286.668976,213.529984 287.869873,226.196121 
	C288.200134,229.679565 288.790558,232.001633 292.822357,232.017563 
	C296.877747,232.033600 298.924194,230.217972 299.015259,226.081375 
	C299.275787,214.247208 305.238495,205.665726 315.378479,200.457214 
	C325.879242,195.063400 336.646149,195.556534 346.713593,202.215500 
	C354.894012,207.626312 359.526825,215.156631 360.032532,225.114578 
	C360.209167,228.592300 361.144623,231.716370 365.523224,232.002487 
	C369.617432,232.270035 371.161591,230.299637 371.132080,226.321915 
	C371.115326,224.068130 371.697937,221.773712 372.251617,219.557800 
	C375.635468,206.015121 390.888550,195.414139 404.915741,197.042709 
	C420.023804,198.796799 432.165527,210.955414 432.975555,225.470673 
	C433.191132,229.333893 433.885864,232.258026 438.850739,232.070450 
	C443.683197,231.887848 444.220734,228.744995 443.943909,225.272217 
	C443.094543,214.617249 442.540863,203.896606 440.884125,193.356812 
	C437.335602,170.782684 429.152344,149.668869 417.433990,130.200317 
	C405.036285,109.603127 389.048523,91.891197 369.791595,77.318535 
	C349.533447,61.988239 327.088409,51.190861 302.438232,44.946022 
	C284.439209,40.386192 266.218994,39.189438 247.687500,39.863552 
	C231.779663,40.442230 216.374496,43.160595 201.282700,47.913837 
	C170.083038,57.740337 143.385773,74.628128 120.863472,98.456329 
	C108.652496,111.375305 98.483238,125.669014 90.415398,141.306137 
	C82.832886,156.002579 76.770279,171.536224 74.138794,187.977127 
	C72.116501,200.611969 71.218201,213.435135 70.087662,226.198242 
	C69.813110,229.297775 70.866898,231.927383 75.061539,232.091660 
	C79.266548,232.256363 80.630516,230.175598 81.011566,226.553802 
	C81.268250,224.114151 81.480171,221.635803 82.091919,219.273117 
	C85.603134,205.712021 102.811577,193.605179 117.815048,197.805054 
	C132.977982,202.049561 140.384430,209.846420 142.864136,226.772522 
	C143.363998,230.184464 144.323151,231.897827 147.906387,232.046509 
	C151.824509,232.209106 153.753265,229.645218 153.795731,226.681091 
	C153.897324,219.592484 156.210892,213.548996 160.969452,207.550339 
z"/>
<path fill="#846F75" opacity="1.000000" stroke="none" 
	d="
M262.021820,251.914215 
	C296.851807,251.942810 331.681793,251.971146 366.511780,252.000183 
	C374.796204,252.007095 378.990021,256.139008 378.992401,264.438507 
	C379.007355,316.601440 379.011139,368.764404 378.988739,420.927338 
	C378.985046,429.528198 374.528625,433.974335 365.879669,433.986511 
	C339.221283,434.024048 312.562805,434.000244 285.460602,434.000244 
	C287.314301,444.008606 292.460327,451.720581 299.780884,458.060944 
	C300.824371,458.964691 302.857208,458.886688 304.447662,458.970856 
	C311.873535,459.363892 319.399109,459.034851 326.709076,460.146942 
	C334.859985,461.386963 339.100464,469.585876 337.991791,479.876343 
	C337.298767,486.309204 330.443085,491.995239 323.317322,491.996368 
	C279.153809,492.003540 234.990280,492.003052 190.826767,491.996796 
	C183.870514,491.995789 177.619370,487.325684 176.100433,481.044525 
	C174.209076,473.223267 176.993683,465.151367 183.303619,462.050232 
	C186.587158,460.436432 190.387985,459.569580 194.048523,459.111420 
	C197.986618,458.618500 202.118591,458.478119 206.015594,459.110504 
	C213.389877,460.307159 217.636002,456.234283 220.945770,450.850433 
	C224.083466,445.746399 226.559784,440.235748 229.796066,434.000000 
	C226.422760,434.000000 224.484329,433.999969 222.545898,433.999969 
	C198.047653,434.000122 173.549393,434.006927 149.051147,433.997253 
	C139.099640,433.993317 135.004745,429.865875 135.003464,419.830414 
	C134.996887,368.334106 135.087585,316.837463 134.908157,265.341797 
	C134.880783,257.483521 139.388641,251.685028 148.557404,251.811783 
	C182.381348,252.279373 216.215805,251.988007 250.970947,251.980621 
	C255.270996,251.957565 258.646423,251.935898 262.021820,251.914215 
M222.500000,423.000122 
	C270.899597,423.000122 319.299194,423.000122 368.000488,423.000122 
	C368.000488,420.620605 368.000519,418.974335 368.000519,417.328064 
	C368.000366,367.684113 367.931244,318.039948 368.105988,268.396606 
	C368.123535,263.403046 366.834503,261.878540 361.707367,261.890503 
	C291.906342,262.053223 222.104721,262.053253 152.303726,261.889984 
	C147.200195,261.878021 145.873734,263.338684 145.891907,268.364075 
	C146.071411,318.007385 146.000275,367.651550 146.000153,417.295502 
	C146.000137,419.065308 146.000153,420.835144 146.000153,423.000153 
	C171.588989,423.000153 196.544495,423.000153 222.500000,423.000122 
M215.500031,481.999817 
	C247.812576,481.999847 280.125122,482.000153 312.437683,481.999512 
	C314.936066,481.999451 317.520569,482.396973 319.911041,481.887299 
	C322.906433,481.248627 326.785156,481.337891 326.975494,476.591705 
	C327.146820,472.318512 324.616699,470.015411 319.155090,470.012512 
	C277.348663,469.990112 235.542191,469.990784 193.735809,470.041595 
	C192.334625,470.043274 190.202667,470.208588 189.678909,471.069092 
	C188.414413,473.146606 186.560226,476.549927 187.391541,477.833740 
	C188.725449,479.893829 191.960831,481.601990 194.527817,481.812744 
	C201.145737,482.356110 207.837692,481.997864 215.500031,481.999817 
M256.500671,434.000000 
	C251.198593,434.000000 245.896530,434.000000 241.409973,434.000000 
	C237.522461,442.663330 233.893326,450.750885 230.286423,458.788879 
	C247.932083,458.788879 266.082031,458.788879 283.708099,458.788879 
	C280.095612,450.730835 276.474213,442.652893 272.595032,434.000000 
	C268.102722,434.000000 262.800934,434.000000 256.500671,434.000000 
z"/>
<path fill="#846F75" opacity="1.000000" stroke="none" 
	d="
M160.716919,207.812744 
	C156.210892,213.548996 153.897324,219.592484 153.795731,226.681091 
	C153.753265,229.645218 151.824509,232.209106 147.906387,232.046509 
	C144.323151,231.897827 143.363998,230.184464 142.864136,226.772522 
	C140.384430,209.846420 132.977982,202.049561 117.815048,197.805054 
	C102.811577,193.605179 85.603134,205.712021 82.091919,219.273117 
	C81.480171,221.635803 81.268250,224.114151 81.011566,226.553802 
	C80.630516,230.175598 79.266548,232.256363 75.061539,232.091660 
	C70.866898,231.927383 69.813110,229.297775 70.087662,226.198242 
	C71.218201,213.435135 72.116501,200.611969 74.138794,187.977127 
	C76.770279,171.536224 82.832886,156.002579 90.415398,141.306137 
	C98.483238,125.669014 108.652496,111.375305 120.863472,98.456329 
	C143.385773,74.628128 170.083038,57.740337 201.282700,47.913837 
	C216.374496,43.160595 231.779663,40.442230 247.687500,39.863552 
	C266.218994,39.189438 284.439209,40.386192 302.438232,44.946022 
	C327.088409,51.190861 349.533447,61.988239 369.791595,77.318535 
	C389.048523,91.891197 405.036285,109.603127 417.433990,130.200317 
	C429.152344,149.668869 437.335602,170.782684 440.884125,193.356812 
	C442.540863,203.896606 443.094543,214.617249 443.943909,225.272217 
	C444.220734,228.744995 443.683197,231.887848 438.850739,232.070450 
	C433.885864,232.258026 433.191132,229.333893 432.975555,225.470673 
	C432.165527,210.955414 420.023804,198.796799 404.915741,197.042709 
	C390.888550,195.414139 375.635468,206.015121 372.251617,219.557800 
	C371.697937,221.773712 371.115326,224.068130 371.132080,226.321915 
	C371.161591,230.299637 369.617432,232.270035 365.523224,232.002487 
	C361.144623,231.716370 360.209167,228.592300 360.032532,225.114578 
	C359.526825,215.156631 354.894012,207.626312 346.713593,202.215500 
	C336.646149,195.556534 325.879242,195.063400 315.378479,200.457214 
	C305.238495,205.665726 299.275787,214.247208 299.015259,226.081375 
	C298.924194,230.217972 296.877747,232.033600 292.822357,232.017563 
	C288.790558,232.001633 288.200134,229.679565 287.869873,226.196121 
	C286.668976,213.529984 280.381195,204.051331 268.436066,199.304657 
	C256.332214,194.494904 245.288315,196.954941 235.631516,205.828049 
	C229.451996,211.506042 226.508163,218.599792 226.062378,226.770859 
	C225.873505,230.232712 224.700699,232.112534 221.054214,232.004379 
	C217.301208,231.893066 215.069519,230.052185 215.033096,226.267441 
	C214.863358,208.635452 198.845001,195.661484 182.062454,197.058838 
	C173.758698,197.750214 166.558334,201.154312 160.716919,207.812744 
M204.061676,59.004543 
	C204.061676,59.004543 204.168335,59.048447 203.359390,59.014225 
	C194.212631,62.870243 184.897232,66.373718 175.952820,70.652702 
	C154.684097,80.827614 137.027603,95.867134 122.011070,113.739891 
	C106.705589,131.956543 95.339729,152.591858 88.761803,175.633621 
	C86.911148,182.116257 85.296623,188.666275 83.573807,195.185394 
	C91.935410,190.219940 100.034805,186.452606 109.321030,186.023422 
	C122.927467,185.394592 134.286377,190.504059 144.001892,200.649948 
	C145.189285,202.694702 146.376694,204.739456 148.030731,207.587784 
	C150.722778,203.552338 152.923386,200.253586 155.754364,196.708084 
	C156.826813,195.978592 157.927567,195.287109 158.967331,194.513687 
	C168.798172,187.201157 179.592041,184.842484 191.802475,186.725372 
	C201.366745,188.200211 208.525223,193.522095 215.967178,199.662857 
	C217.357559,202.044724 218.747940,204.426575 220.550430,207.514450 
	C223.046722,203.885376 225.089325,200.915878 227.746704,197.709396 
	C235.807175,189.995056 245.433105,186.087311 256.572662,186.013458 
	C268.248199,185.936066 278.281677,190.128265 287.152954,198.579407 
	C289.149567,201.337097 291.146210,204.094803 293.678467,207.592300 
	C295.439606,204.128525 296.768921,201.514038 298.739227,198.699295 
	C299.700104,198.094223 300.769409,197.610870 301.605621,196.865891 
	C314.448547,185.423965 329.048248,183.038910 344.890411,189.054764 
	C349.835175,190.932449 354.223572,194.275208 359.022797,197.636414 
	C361.245758,200.711212 363.468719,203.786026 366.210632,207.578629 
	C367.816376,204.454620 368.974915,202.200653 370.744232,199.711975 
	C388.011017,182.846741 403.823608,181.691406 429.793945,195.419952 
	C429.858459,194.913544 430.055786,194.395126 429.964203,193.934113 
	C426.925140,178.631805 422.281311,163.803574 415.312134,149.864944 
	C405.404022,130.048431 392.381653,112.551895 376.069183,97.340340 
	C361.183441,83.459221 344.323181,72.905548 325.957764,64.573036 
	C320.807190,62.236176 315.218567,60.864838 309.936768,59.005474 
	C309.936768,59.005474 309.993866,59.105450 309.830048,58.483257 
	C309.228058,58.348816 308.626068,58.214375 307.333130,57.802265 
	C291.387329,51.853664 274.810364,49.923695 257.295746,50.025875 
	C256.885010,50.035603 256.474243,50.045326 255.128983,49.986263 
	C249.719254,50.337421 244.309509,50.688576 238.267654,51.025097 
	C237.846786,51.040771 237.425934,51.056446 236.166824,51.052536 
	C226.102936,53.395660 216.039062,55.738781 205.332825,58.036129 
	C204.890488,58.392574 204.448151,58.749016 204.061676,59.004543 
z"/>
<path fill="#65C1D6" opacity="1.000000" stroke="none" 
	d="
M262.012634,251.453766 
	C258.646423,251.935898 255.270996,251.957565 251.437195,251.947174 
	C250.985764,238.278595 250.996567,224.642075 250.997299,211.005554 
	C250.997513,207.039856 251.543335,203.799347 256.832306,203.931351 
	C262.034332,204.061203 261.964233,207.578079 261.978699,211.081451 
	C262.033691,224.385208 262.002472,237.689331 262.012634,251.453766 
z"/>
<path fill="#000000" opacity="0.000000" stroke="none" 
	d="
M222.000000,423.000122 
	C196.544495,423.000153 171.588989,423.000153 146.000153,423.000153 
	C146.000153,420.835144 146.000137,419.065308 146.000153,417.295502 
	C146.000275,367.651550 146.071411,318.007385 145.891907,268.364075 
	C145.873734,263.338684 147.200195,261.878021 152.303726,261.889984 
	C222.104721,262.053253 291.906342,262.053223 361.707367,261.890503 
	C366.834503,261.878540 368.123535,263.403046 368.105988,268.396606 
	C367.931244,318.039948 368.000366,367.684113 368.000519,417.328064 
	C368.000519,418.974335 368.000488,420.620605 368.000488,423.000122 
	C319.299194,423.000122 270.899597,423.000122 222.000000,423.000122 
M206.051849,353.188934 
	C210.185883,360.111755 213.268997,368.021637 218.661331,373.762573 
	C232.026001,387.991241 249.154526,392.708893 268.239502,388.923370 
	C291.037750,384.401245 307.224274,365.955658 309.847321,343.606018 
	C311.528839,329.278748 307.983002,316.052826 299.145813,304.053619 
	C287.896790,288.779633 264.202026,279.980469 245.722549,284.553711 
	C234.563095,287.315430 225.220932,292.563385 217.524017,300.967255 
	C203.851166,315.895935 201.260391,333.305054 206.051849,353.188934 
M221.409683,406.070374 
	C220.465866,413.284729 221.058228,413.993439 228.044189,413.999084 
	C230.866852,414.001343 233.718552,413.743622 236.505341,414.059723 
	C240.617874,414.526245 242.765015,412.895294 242.977142,408.840485 
	C243.208908,404.410431 239.896652,403.421509 236.596603,403.081268 
	C233.146423,402.725555 229.608368,402.770111 226.155060,403.110229 
	C224.693283,403.254211 223.349823,404.599670 221.409683,406.070374 
M274.104279,413.998016 
	C278.420288,413.998474 282.740265,413.884399 287.051086,414.034180 
	C290.767181,414.163330 293.126068,413.175446 293.035217,408.873688 
	C292.950806,404.878937 291.129578,402.935699 287.127625,402.993622 
	C284.472168,403.032043 281.733246,402.594391 279.182159,403.111786 
	C276.461395,403.663605 272.940582,404.420227 271.618591,406.352692 
	C270.633820,407.792206 272.594421,411.246552 274.104279,413.998016 
M253.699142,414.000031 
	C256.354370,414.000031 259.011932,413.929626 261.664276,414.017548 
	C265.092529,414.131195 267.951599,413.803314 268.039825,409.273865 
	C268.129456,404.669708 265.148468,403.421204 261.515930,403.056671 
	C258.722870,402.776337 255.877670,402.942261 253.058304,403.013672 
	C248.398819,403.131683 245.997604,405.345093 245.980286,409.192413 
	C245.958099,414.115234 249.279694,414.128387 253.699142,414.000031 
z"/>
<path fill="#000000" opacity="0.000000" stroke="none" 
	d="
M215.000046,481.999817 
	C207.837692,481.997864 201.145737,482.356110 194.527817,481.812744 
	C191.960831,481.601990 188.725449,479.893829 187.391541,477.833740 
	C186.560226,476.549927 188.414413,473.146606 189.678909,471.069092 
	C190.202667,470.208588 192.334625,470.043274 193.735809,470.041595 
	C235.542191,469.990784 277.348663,469.990112 319.155090,470.012512 
	C324.616699,470.015411 327.146820,472.318512 326.975494,476.591705 
	C326.785156,481.337891 322.906433,481.248627 319.911041,481.887299 
	C317.520569,482.396973 314.936066,481.999451 312.437683,481.999512 
	C280.125122,482.000153 247.812576,481.999847 215.000046,481.999817 
z"/>
<path fill="#000000" opacity="0.000000" stroke="none" 
	d="
M256.999878,434.000000 
	C262.800934,434.000000 268.102722,434.000000 272.595032,434.000000 
	C276.474213,442.652893 280.095612,450.730835 283.708099,458.788879 
	C266.082031,458.788879 247.932083,458.788879 230.286423,458.788879 
	C233.893326,450.750885 237.522461,442.663330 241.409973,434.000000 
	C245.896530,434.000000 251.198593,434.000000 256.999878,434.000000 
z"/>
<path fill="#000000" opacity="0.000000" stroke="none" 
	d="
M256.063507,50.055054 
	C256.474243,50.045326 256.885010,50.035603 257.721863,50.351505 
	C260.734772,54.022648 264.094452,57.021179 265.778290,60.772041 
	C274.354675,79.876709 277.789856,100.376289 280.914520,120.876984 
	C282.416901,130.733704 283.257904,140.709946 283.981659,150.662369 
	C285.127014,166.411331 285.921997,182.185776 286.865295,197.949432 
	C278.281677,190.128265 268.248199,185.936066 256.572662,186.013458 
	C245.433105,186.087311 235.807175,189.995056 227.381439,197.363953 
	C227.672668,185.360367 228.267426,173.698349 229.005402,162.045380 
	C229.585724,152.881546 229.880188,143.665298 231.128723,134.586075 
	C233.048553,120.625145 235.084427,106.628769 238.164185,92.892517 
	C241.578659,77.663353 244.642899,62.043568 256.063507,50.055054 
z"/>
<path fill="#000000" opacity="0.000000" stroke="none" 
	d="
M358.866669,196.947281 
	C354.223572,194.275208 349.835175,190.932449 344.890411,189.054764 
	C329.048248,183.038910 314.448547,185.423965 301.605621,196.865891 
	C300.769409,197.610870 299.700104,198.094223 298.375854,198.339203 
	C297.009705,182.226669 296.310089,166.447311 294.912994,150.729935 
	C293.685272,136.918060 291.909454,123.142494 289.956543,109.410500 
	C287.206512,90.073624 283.275146,71.012688 274.727875,52.715847 
	C277.491791,53.342442 280.066315,54.289803 282.290192,55.765545 
	C290.656311,61.317215 299.539856,66.315369 307.061218,72.862991 
	C319.739624,83.900002 328.505829,98.205902 335.902191,113.123886 
	C344.241241,129.943314 350.340424,147.677292 353.938232,166.145065 
	C355.925415,176.345383 357.245728,186.675613 358.866669,196.947281 
z"/>
<path fill="#000000" opacity="0.000000" stroke="none" 
	d="
M215.838409,198.955688 
	C208.525223,193.522095 201.366745,188.200211 191.802475,186.725372 
	C179.592041,184.842484 168.798172,187.201157 158.967331,194.513687 
	C157.927567,195.287109 156.826813,195.978592 155.385422,196.404221 
	C156.007919,189.855499 157.047073,183.617783 157.982193,177.364502 
	C161.288162,155.257034 168.088867,134.190689 177.580917,114.045212 
	C183.004898,102.533653 190.147736,92.055977 198.248596,82.106384 
	C207.571671,70.655647 218.801132,62.080055 231.843430,55.512840 
	C233.810562,54.522320 235.296524,52.576206 237.005066,51.072128 
	C237.425934,51.056446 237.846786,51.040771 238.634369,51.378544 
	C238.715103,53.329189 238.633423,54.997169 238.108719,56.511654 
	C235.467789,64.133942 231.908707,71.537369 230.167969,79.350922 
	C226.886795,94.078857 224.254684,108.979691 222.054108,123.911995 
	C219.912674,138.443054 218.359802,153.078552 217.098419,167.715591 
	C216.204559,178.088120 216.225708,188.539505 215.838409,198.955688 
z"/>
<path fill="#000000" opacity="0.000000" stroke="none" 
	d="
M143.867828,199.944977 
	C134.286377,190.504059 122.927467,185.394592 109.321030,186.023422 
	C100.034805,186.452606 91.935410,190.219940 83.573807,195.185394 
	C85.296623,188.666275 86.911148,182.116257 88.761803,175.633621 
	C95.339729,152.591858 106.705589,131.956543 122.011070,113.739891 
	C137.027603,95.867134 154.684097,80.827614 175.952820,70.652702 
	C184.897232,66.373718 194.212631,62.870243 203.986206,59.362286 
	C198.836960,65.514412 192.368515,70.787804 187.428787,77.232864 
	C177.094696,90.716148 168.700455,105.426743 162.263138,121.249184 
	C151.976044,146.534088 146.095184,172.800522 143.867828,199.944977 
z"/>
<path fill="#000000" opacity="0.000000" stroke="none" 
	d="
M309.830872,59.050613 
	C315.218567,60.864838 320.807190,62.236176 325.957764,64.573036 
	C344.323181,72.905548 361.183441,83.459221 376.069183,97.340340 
	C392.381653,112.551895 405.404022,130.048431 415.312134,149.864944 
	C422.281311,163.803574 426.925140,178.631805 429.964203,193.934113 
	C430.055786,194.395126 429.858459,194.913544 429.793945,195.419952 
	C403.823608,181.691406 388.011017,182.846741 370.380829,199.388107 
	C369.000641,190.480515 368.540680,181.786163 366.861450,173.334045 
	C362.038757,149.059494 355.110626,125.495377 343.289337,103.479805 
	C335.201508,88.417297 325.423035,74.807747 313.268280,62.846684 
	C312.053589,61.651344 310.973450,60.319244 309.830872,59.050613 
z"/>
<path fill="#65C1D6" opacity="1.000000" stroke="none" 
	d="
M309.883820,59.028042 
	C310.973450,60.319244 312.053589,61.651344 313.268280,62.846684 
	C325.423035,74.807747 335.201508,88.417297 343.289337,103.479805 
	C355.110626,125.495377 362.038757,149.059494 366.861450,173.334045 
	C368.540680,181.786163 369.000641,190.480515 370.075439,199.505463 
	C368.974915,202.200653 367.816376,204.454620 366.210632,207.578629 
	C363.468719,203.786026 361.245758,200.711212 358.944733,197.291840 
	C357.245728,186.675613 355.925415,176.345383 353.938232,166.145065 
	C350.340424,147.677292 344.241241,129.943314 335.902191,113.123886 
	C328.505829,98.205902 319.739624,83.900002 307.061218,72.862991 
	C299.539856,66.315369 290.656311,61.317215 282.290192,55.765545 
	C280.066315,54.289803 277.491791,53.342442 274.727875,52.715847 
	C283.275146,71.012688 287.206512,90.073624 289.956543,109.410500 
	C291.909454,123.142494 293.685272,136.918060 294.912994,150.729935 
	C296.310089,166.447311 297.009705,182.226669 298.055359,198.439316 
	C296.768921,201.514038 295.439606,204.128525 293.678467,207.592300 
	C291.146210,204.094803 289.149567,201.337097 287.009125,198.264420 
	C285.921997,182.185776 285.127014,166.411331 283.981659,150.662369 
	C283.257904,140.709946 282.416901,130.733704 280.914520,120.876984 
	C277.789856,100.376289 274.354675,79.876709 265.778290,60.772041 
	C264.094452,57.021179 260.734772,54.022648 258.029999,50.358681 
	C274.810364,49.923695 291.387329,51.853664 307.801056,58.283012 
	C308.843933,58.877655 309.418915,58.991550 309.993866,59.105450 
	C309.993866,59.105450 309.936768,59.005474 309.883820,59.028042 
z"/>
<path fill="#65C1D6" opacity="1.000000" stroke="none" 
	d="
M143.934860,200.297455 
	C146.095184,172.800522 151.976044,146.534088 162.263138,121.249184 
	C168.700455,105.426743 177.094696,90.716148 187.428787,77.232864 
	C192.368515,70.787804 198.836960,65.514412 204.390686,59.379395 
	C204.168335,59.048447 204.061676,59.004543 204.299728,59.316147 
	C205.016907,59.112465 205.496033,58.597183 205.975159,58.081902 
	C216.039062,55.738781 226.102936,53.395660 236.585938,51.062332 
	C235.296524,52.576206 233.810562,54.522320 231.843430,55.512840 
	C218.801132,62.080055 207.571671,70.655647 198.248596,82.106384 
	C190.147736,92.055977 183.004898,102.533653 177.580917,114.045212 
	C168.088867,134.190689 161.288162,155.257034 157.982193,177.364502 
	C157.047073,183.617783 156.007919,189.855499 155.070236,196.527588 
	C152.923386,200.253586 150.722778,203.552338 148.030731,207.587784 
	C146.376694,204.739456 145.189285,202.694702 143.934860,200.297455 
z"/>
<path fill="#65C1D6" opacity="1.000000" stroke="none" 
	d="
M215.902802,199.309265 
	C216.225708,188.539505 216.204559,178.088120 217.098419,167.715591 
	C218.359802,153.078552 219.912674,138.443054 222.054108,123.911995 
	C224.254684,108.979691 226.886795,94.078857 230.167969,79.350922 
	C231.908707,71.537369 235.467789,64.133942 238.108719,56.511654 
	C238.633423,54.997169 238.715103,53.329189 238.950439,51.385864 
	C244.309509,50.688576 249.719254,50.337421 255.596252,50.020660 
	C244.642899,62.043568 241.578659,77.663353 238.164185,92.892517 
	C235.084427,106.628769 233.048553,120.625145 231.128723,134.586075 
	C229.880188,143.665298 229.585724,152.881546 229.005402,162.045380 
	C228.267426,173.698349 227.672668,185.360367 227.074051,197.482422 
	C225.089325,200.915878 223.046722,203.885376 220.550430,207.514450 
	C218.747940,204.426575 217.357559,202.044724 215.902802,199.309265 
z"/>
<path fill="#000000" opacity="1.000000" stroke="none" 
	d="
M309.911957,58.794353 
	C309.418915,58.991550 308.843933,58.877655 308.146545,58.421844 
	C308.626068,58.214375 309.228058,58.348816 309.911957,58.794353 
z"/>
<path fill="#000000" opacity="1.000000" stroke="none" 
	d="
M205.653992,58.059013 
	C205.496033,58.597183 205.016907,59.112465 204.271790,59.366608 
	C204.448151,58.749016 204.890488,58.392574 205.653992,58.059013 
z"/>
<path fill="#65C1D6" opacity="1.000000" stroke="none" 
	d="
M206.022705,352.774597 
	C201.260391,333.305054 203.851166,315.895935 217.524017,300.967255 
	C225.220932,292.563385 234.563095,287.315430 245.722549,284.553711 
	C264.202026,279.980469 287.896790,288.779633 299.145813,304.053619 
	C307.983002,316.052826 311.528839,329.278748 309.847321,343.606018 
	C307.224274,365.955658 291.037750,384.401245 268.239502,388.923370 
	C249.154526,392.708893 232.026001,387.991241 218.661331,373.762573 
	C213.268997,368.021637 210.185883,360.111755 206.022705,352.774597 
M270.035065,342.063721 
	C261.098145,342.063721 252.161224,342.063721 242.998871,342.063721 
	C243.374023,344.534302 243.563950,346.620911 244.021393,348.647095 
	C245.652130,355.870026 246.748947,363.306335 249.323380,370.184448 
	C250.620071,373.648834 254.660263,376.086304 257.459869,378.988129 
	C259.976074,375.781769 263.665222,372.933441 264.774963,369.297760 
	C267.442230,360.559174 268.899902,351.451416 270.035065,342.063721 
M248.668289,330.999481 
	C256.058380,330.999481 263.448486,330.999481 270.669067,330.999481 
	C270.402618,328.454651 270.456543,326.463745 269.956451,324.623444 
	C267.683960,316.260803 265.959076,307.648834 262.661987,299.696747 
	C259.989716,293.251617 254.997314,293.561981 251.202148,299.482361 
	C250.766617,300.161774 250.327789,300.884918 250.108658,301.650208 
	C247.382462,311.171631 244.696671,320.704559 241.784103,330.999451 
	C244.779343,330.999451 246.246857,330.999451 248.668289,330.999481 
M222.982391,361.482452 
	C226.718307,367.653290 232.472534,371.373322 237.933319,374.403839 
	C235.779572,363.791107 233.583954,352.972168 231.428406,342.350616 
	C225.894257,342.350616 220.516937,342.350616 213.576233,342.350616 
	C216.818741,349.148743 219.637833,355.059143 222.982391,361.482452 
M275.978210,372.143311 
	C275.650848,372.843750 275.323456,373.544220 274.907318,374.434570 
	C287.067932,370.122406 298.414246,354.532349 298.513794,342.142334 
	C293.221802,342.142334 287.930206,342.142334 282.845306,342.142334 
	C280.587860,351.984650 278.361755,361.690308 275.978210,372.143311 
M222.565811,330.999481 
	C225.535294,330.999481 228.504791,330.999481 231.392593,330.999481 
	C233.619522,320.163971 235.785446,309.625275 237.935867,299.162018 
	C225.482849,305.992065 218.006424,316.575806 215.013321,330.999481 
	C217.377838,330.999481 219.498520,330.999481 222.565811,330.999481 
M277.544464,300.030762 
	C277.048096,299.654602 276.551758,299.278473 275.981720,298.846466 
	C278.225555,309.639832 280.419617,320.193695 282.605042,330.706116 
	C288.006805,330.706116 293.394775,330.706116 298.935181,330.706116 
	C296.029266,317.569733 289.750427,307.177277 277.544464,300.030762 
z"/>
<path fill="#EBE8F2" opacity="1.000000" stroke="none" 
	d="
M221.681122,405.734680 
	C223.349823,404.599670 224.693283,403.254211 226.155060,403.110229 
	C229.608368,402.770111 233.146423,402.725555 236.596603,403.081268 
	C239.896652,403.421509 243.208908,404.410431 242.977142,408.840485 
	C242.765015,412.895294 240.617874,414.526245 236.505341,414.059723 
	C233.718552,413.743622 230.866852,414.001343 228.044189,413.999084 
	C221.058228,413.993439 220.465866,413.284729 221.681122,405.734680 
z"/>
<path fill="#EBE7F2" opacity="1.000000" stroke="none" 
	d="
M273.673767,413.900818 
	C272.594421,411.246552 270.633820,407.792206 271.618591,406.352692 
	C272.940582,404.420227 276.461395,403.663605 279.182159,403.111786 
	C281.733246,402.594391 284.472168,403.032043 287.127625,402.993622 
	C291.129578,402.935699 292.950806,404.878937 293.035217,408.873688 
	C293.126068,413.175446 290.767181,414.163330 287.051086,414.034180 
	C282.740265,413.884399 278.420288,413.998474 273.673767,413.900818 
z"/>
<path fill="#EBE7F2" opacity="1.000000" stroke="none" 
	d="
M253.231873,414.000031 
	C249.279694,414.128387 245.958099,414.115234 245.980286,409.192413 
	C245.997604,405.345093 248.398819,403.131683 253.058304,403.013672 
	C255.877670,402.942261 258.722870,402.776337 261.515930,403.056671 
	C265.148468,403.421204 268.129456,404.669708 268.039825,409.273865 
	C267.951599,413.803314 265.092529,414.131195 261.664276,414.017548 
	C259.011932,413.929626 256.354370,414.000031 253.231873,414.000031 
z"/>
<path fill="#000000" opacity="0.000000" stroke="none" 
	d="
M270.440338,342.278137 
	C268.899902,351.451416 267.442230,360.559174 264.774963,369.297760 
	C263.665222,372.933441 259.976074,375.781769 257.459869,378.988129 
	C254.660263,376.086304 250.620071,373.648834 249.323380,370.184448 
	C246.748947,363.306335 245.652130,355.870026 244.021393,348.647095 
	C243.563950,346.620911 243.374023,344.534302 242.998871,342.063721 
	C252.161224,342.063721 261.098145,342.063721 270.440338,342.278137 
z"/>
<path fill="#000000" opacity="0.000000" stroke="none" 
	d="
M248.191330,330.999451 
	C246.246857,330.999451 244.779343,330.999451 241.784103,330.999451 
	C244.696671,320.704559 247.382462,311.171631 250.108658,301.650208 
	C250.327789,300.884918 250.766617,300.161774 251.202148,299.482361 
	C254.997314,293.561981 259.989716,293.251617 262.661987,299.696747 
	C265.959076,307.648834 267.683960,316.260803 269.956451,324.623444 
	C270.456543,326.463745 270.402618,328.454651 270.669067,330.999481 
	C263.448486,330.999481 256.058380,330.999481 248.191330,330.999451 
z"/>
<path fill="#000000" opacity="0.000000" stroke="none" 
	d="
M222.719666,361.226013 
	C219.637833,355.059143 216.818741,349.148743 213.576233,342.350616 
	C220.516937,342.350616 225.894257,342.350616 231.428406,342.350616 
	C233.583954,352.972168 235.779572,363.791107 237.933319,374.403839 
	C232.472534,371.373322 226.718307,367.653290 222.719666,361.226013 
z"/>
<path fill="#000000" opacity="0.000000" stroke="none" 
	d="
M276.056946,371.769653 
	C278.361755,361.690308 280.587860,351.984650 282.845306,342.142334 
	C287.930206,342.142334 293.221802,342.142334 298.513794,342.142334 
	C298.414246,354.532349 287.067932,370.122406 274.907318,374.434570 
	C275.323456,373.544220 275.650848,372.843750 276.056946,371.769653 
z"/>
<path fill="#000000" opacity="0.000000" stroke="none" 
	d="
M222.092499,330.999481 
	C219.498520,330.999481 217.377838,330.999481 215.013321,330.999481 
	C218.006424,316.575806 225.482849,305.992065 237.935867,299.162018 
	C235.785446,309.625275 233.619522,320.163971 231.392593,330.999481 
	C228.504791,330.999481 225.535294,330.999481 222.092499,330.999481 
z"/>
<path fill="#000000" opacity="0.000000" stroke="none" 
	d="
M277.798218,300.288055 
	C289.750427,307.177277 296.029266,317.569733 298.935181,330.706116 
	C293.394775,330.706116 288.006805,330.706116 282.605042,330.706116 
	C280.419617,320.193695 278.225555,309.639832 275.981720,298.846466 
	C276.551758,299.278473 277.048096,299.654602 277.798218,300.288055 
z"/>
</svg>